<?xml version="1.0" encoding="UTF-8"?>
<svg id="Logo_branco" data-name="Logo branco" xmlns="http://www.w3.org/2000/svg" viewBox="0 0 1080 716.05">
  <g>
    <polygon points="506.09 370.46 268.87 521.35 31.64 370.46 37.73 366.58 268.87 513.6 500 366.59 506.09 370.46" style="fill: #fff; stroke-width: 0px;"/>
    <polygon points="772.71 200.87 535.48 351.77 298.26 200.87 304.36 196.99 535.48 344.02 766.61 196.99 772.71 200.87" style="fill: #fff; stroke-width: 0px;"/>
    <polygon points="772.71 540.04 535.48 690.93 298.26 540.04 304.35 536.17 535.48 683.18 766.62 536.17 772.71 540.04" style="fill: #fff; stroke-width: 0px;"/>
    <polygon points="1039.32 370.46 802.1 521.35 564.87 370.46 570.96 366.59 802.1 513.6 1033.23 366.59 1039.32 370.46" style="fill: #fff; stroke-width: 0px;"/>
  </g>
  <g>
    <polygon points="502.17 360.22 496.08 364.09 268.87 508.61 41.65 364.09 35.56 360.22 268.87 211.81 502.17 360.22" style="fill: #fff; stroke-width: 0px;"/>
    <polygon points="768.79 190.62 762.69 194.5 535.48 339.03 308.28 194.5 302.18 190.62 535.48 42.23 768.79 190.62" style="fill: #fff; stroke-width: 0px;"/>
    <polygon points="768.79 529.8 762.7 533.67 535.48 678.2 308.27 533.67 302.18 529.8 535.48 381.41 768.79 529.8" style="fill: #fff; stroke-width: 0px;"/>
    <polygon points="1035.4 360.22 1029.31 364.09 802.1 508.61 574.88 364.09 568.79 360.22 802.1 211.81 1035.4 360.22" style="fill: #fff; stroke-width: 0px;"/>
  </g>
</svg>