<?xml version="1.0" encoding="UTF-8"?>
<svg id="LOGO" xmlns="http://www.w3.org/2000/svg" viewBox="0 0 1080 716.05">
  <g>
    <polygon points="506.09 367.08 268.87 517.97 31.64 367.08 37.73 363.2 268.87 510.22 500 363.21 506.09 367.08" style="fill: #2f508c; stroke-width: 0px;"/>
    <polygon points="772.71 197.49 535.48 348.39 298.26 197.49 304.36 193.61 535.48 340.64 766.61 193.61 772.71 197.49" style="fill: #2f508c; stroke-width: 0px;"/>
    <polygon points="772.71 536.66 535.48 687.55 298.26 536.66 304.35 532.79 535.48 679.8 766.62 532.79 772.71 536.66" style="fill: #2f508c; stroke-width: 0px;"/>
    <polygon points="1039.32 367.08 802.1 517.97 564.87 367.08 570.96 363.21 802.1 510.22 1033.23 363.21 1039.32 367.08" style="fill: #2f508c; stroke-width: 0px;"/>
  </g>
  <g>
    <polygon points="502.17 356.84 496.08 360.71 268.87 505.23 41.65 360.71 35.56 356.84 268.87 208.43 502.17 356.84" style="fill: #35569e; stroke-width: 0px;"/>
    <polygon points="768.79 187.24 762.69 191.12 535.48 335.65 308.28 191.12 302.18 187.24 535.48 38.85 768.79 187.24" style="fill: #35569e; stroke-width: 0px;"/>
    <polygon points="768.79 526.42 762.7 530.29 535.48 674.82 308.27 530.29 302.18 526.42 535.48 378.03 768.79 526.42" style="fill: #35569e; stroke-width: 0px;"/>
    <polygon points="1035.4 356.84 1029.31 360.71 802.1 505.23 574.88 360.71 568.79 356.84 802.1 208.43 1035.4 356.84" style="fill: #35569e; stroke-width: 0px;"/>
  </g>
</svg>