<?xml version="1.0" encoding="UTF-8"?>
<svg id="LOGO_TEXTO_cópia" data-name="LOGO + TEXTO cópia" xmlns="http://www.w3.org/2000/svg" viewBox="0 0 1867.35 454.55">
  <g id="Camada_2_cópia_cópia_2" data-name="Camada 2 cópia cópia 2">
    <g>
      <g>
        <path d="m954.9,187.04c0-31.86.51-67.58,1.32-88.69h-1.29c-8.78,38.1-27.45,100.3-45.35,158.73h-34.38c-13.62-51.08-32.93-121.95-41.12-159.24h-1.26c1.59,21.91,2.37,60.33,2.37,92.36v66.88h-36.8V70.35h60.09c14.56,48.79,30.88,109.99,36.49,137.83h.3c4.57-24.54,25.09-89.98,40.66-137.83h57.91v186.73h-38.95v-70.05Z" style="fill: #fff; stroke-width: 0px;"/>
        <path d="m1063.62,213.95l-14.57,43.13h-39.69l63.41-186.73h50.72l66.15,186.73h-42.45l-15.35-43.13h-68.22Zm59.53-33.09c-13.26-39.41-21.71-64.59-26.21-81.37h-.27c-4.6,18.41-13.93,47.7-24.56,81.37h51.04Z" style="fill: #fff; stroke-width: 0px;"/>
        <path d="m1234.18,202.35c4.26,18.75,17.71,26.97,39.32,26.97s30.77-8.51,30.77-22.18c0-15.2-9-21.79-40.94-29.22-50.82-11.93-63.38-30.41-63.38-55.62,0-32.55,24.35-54.65,68.55-54.65,49.58,0,69.33,26.65,72.01,53.97h-40.68c-1.95-11.49-8.31-23.97-32.38-23.97-16.39,0-26.28,6.77-26.28,20.03s7.93,18.25,38.1,25.25c54.31,12.79,66.22,33,66.22,59.33,0,34.1-25.8,57.49-75.16,57.49s-72.36-23.33-76.84-57.38h40.68Z" style="fill: #fff; stroke-width: 0px;"/>
        <path d="m1404.75,103.45h-56.74v-33.09h153.67v33.09h-56.53v153.64h-40.41V103.45Z" style="fill: #fff; stroke-width: 0px;"/>
        <path d="m1645.45,176.55h-89.3v47.44h98.51l-4.79,33.09h-132.91V70.35h132.41v33.09h-93.22v40.01h89.3v33.09Z" style="fill: #fff; stroke-width: 0px;"/>
        <path d="m1713.24,182.35v74.74h-39.46V70.35h82.05c40.71,0,62.63,22.43,62.63,51.27,0,25.06-13.64,38.62-27.14,44.18,9.25,3.41,23.2,13.04,23.2,46.47v9.22c0,12.56.11,26.86,2.68,35.6h-38.26c-3.28-8.12-3.9-22.1-3.9-41.93v-2.73c0-20.42-5.16-30.08-35.25-30.08h-26.56Zm0-32.14h33.85c22.11,0,30.63-8.41,30.63-24.03s-9.92-23.69-29.67-23.69h-34.81v47.71Z" style="fill: #fff; stroke-width: 0px;"/>
      </g>
      <g>
        <path d="m800.41,302.43h42.3v7.48h-33.71v21.36h31.6v7.48h-31.6v29.52h-8.6v-65.84Z" style="fill: #fff; stroke-width: 0px;"/>
        <path d="m857.35,345.78c.06,9.76,4.97,16.69,13.12,16.69,7.59,0,10.05-3.91,11.58-7.42h8.34c-1.89,6.15-7.04,14.35-20.18,14.35-15.09,0-21.24-12.26-21.24-24.61,0-14.27,7.19-25.64,21.78-25.64,15.48,0,20.55,12.42,20.55,22.65,0,1.46,0,2.68-.13,3.98h-33.82Zm25.54-5.84c-.09-7.89-4.07-14.24-12.27-14.24s-12.15,5.87-12.99,14.24h25.26Z" style="fill: #fff; stroke-width: 0px;"/>
        <path d="m901.97,333.32c0-6.71-.06-10.48-.09-13.04h8.12c.13,1.35.26,5.11.26,9.8,2.51-6.49,8.23-10.69,16.16-10.93v8.26c-9.84.29-16.16,5.43-16.16,17.56v23.3h-8.28v-34.95Z" style="fill: #fff; stroke-width: 0px;"/>
        <path d="m934.34,333.32c0-6.71-.06-10.48-.09-13.04h8.12c.13,1.35.26,5.11.26,9.8,2.51-6.49,8.23-10.69,16.16-10.93v8.26c-9.84.29-16.16,5.43-16.16,17.56v23.3h-8.28v-34.95Z" style="fill: #fff; stroke-width: 0px;"/>
        <path d="m1001.78,357.8c0,4.36.38,9.08.66,10.46h-7.93c-.38-1.07-.66-3.35-.78-6.28-1.68,3.2-5.51,7.42-14.82,7.42-11.31,0-16.14-7.37-16.14-14.66,0-10.71,8.41-15.61,22.67-15.61h8.19v-4.09c0-4.23-1.35-9.4-10.33-9.4-8.02,0-9.37,3.98-10.24,7.72h-8.02c.63-6.61,4.72-14.25,18.52-14.22,11.73.03,18.22,4.81,18.22,15.72v22.93Zm-8.09-12.93h-7.77c-9.56,0-14.69,2.64-14.69,9.41,0,4.99,3.42,8.62,9.34,8.62,11.56,0,13.11-7.78,13.11-16.5v-1.54Z" style="fill: #fff; stroke-width: 0px;"/>
        <path d="m1016.1,332.66c0-4.14,0-8.48-.09-12.38h7.99c.13,1.44.35,4.97.32,7.38,2.19-4.3,6.37-8.52,13.96-8.52,6.79,0,11.46,3.45,13.28,8.6,2.57-4.55,7.1-8.6,15.29-8.6s15.12,4.6,15.12,17.58v31.54h-8.15v-30.53c0-5.57-2-11.44-9.5-11.44s-11.2,5.91-11.2,14.42v27.56h-8.12v-30.27c0-6.17-1.75-11.67-9.28-11.67s-11.41,6.23-11.41,15.38v26.56h-8.22v-35.61Z" style="fill: #fff; stroke-width: 0px;"/>
        <path d="m1101.12,345.78c.06,9.76,4.97,16.69,13.12,16.69,7.59,0,10.05-3.91,11.58-7.42h8.34c-1.89,6.15-7.04,14.35-20.18,14.35-15.09,0-21.24-12.26-21.24-24.61,0-14.27,7.19-25.64,21.78-25.64,15.48,0,20.55,12.42,20.55,22.65,0,1.46,0,2.68-.13,3.98h-33.82Zm25.54-5.84c-.09-7.89-4.07-14.24-12.27-14.24s-12.15,5.87-12.99,14.24h25.26Z" style="fill: #fff; stroke-width: 0px;"/>
        <path d="m1145.77,332.37c0-4.16,0-8.37-.09-12.09h8.05c.22,1.41.35,6.46.32,7.88,1.91-4.12,5.83-9.02,15.1-9.02s16.03,5.5,16.03,18.26v30.86h-8.28v-29.8c0-7.25-2.83-12.13-10.16-12.13-9.05,0-12.69,6.89-12.69,16.53v25.4h-8.28v-35.89Z" style="fill: #fff; stroke-width: 0px;"/>
        <path d="m1192.58,320.28h8.3v-14.16h8.28v14.16h10.59v6.76h-10.59v28.11c0,4.66,1.14,7.05,5.48,7.05,1.15,0,2.87-.06,4.18-.4v6.24c-2.05.76-4.89.88-7.17.88-7.46,0-10.77-3.87-10.77-11.84v-30.05h-8.3v-6.76Z" style="fill: #fff; stroke-width: 0px;"/>
        <path d="m1264.47,357.8c0,4.36.38,9.08.66,10.46h-7.93c-.38-1.07-.66-3.35-.78-6.28-1.68,3.2-5.51,7.42-14.82,7.42-11.31,0-16.14-7.37-16.14-14.66,0-10.71,8.41-15.61,22.67-15.61h8.19v-4.09c0-4.23-1.35-9.4-10.33-9.4-8.02,0-9.37,3.98-10.24,7.72h-8.02c.63-6.61,4.72-14.25,18.52-14.22,11.73.03,18.22,4.81,18.22,15.72v22.93Zm-8.09-12.93h-7.77c-9.56,0-14.69,2.64-14.69,9.41,0,4.99,3.42,8.62,9.34,8.62,11.56,0,13.11-7.78,13.11-16.5v-1.54Z" style="fill: #fff; stroke-width: 0px;"/>
        <path d="m1282.15,354.54c1.37,5.25,5.26,8.33,11.76,8.33,7.05,0,9.82-3.04,9.82-7.4s-2.2-6.57-11.36-8.79c-13.72-3.34-16.58-7.53-16.58-14.04s4.99-13.49,17.32-13.49,17.45,7.17,18.07,13.85h-8.02c-.68-3.1-3.04-7.42-10.41-7.42-6.73,0-8.72,3.23-8.72,6.38,0,3.58,1.97,5.36,10.77,7.46,14.55,3.45,17.46,8.31,17.46,15.44,0,8.41-6.67,14.55-18.61,14.55s-18.52-6.28-19.74-14.86h8.24Z" style="fill: #fff; stroke-width: 0px;"/>
        <path d="m1351.79,345.78c.06,9.76,4.97,16.69,13.12,16.69,7.59,0,10.05-3.91,11.58-7.42h8.34c-1.89,6.15-7.04,14.35-20.18,14.35-15.09,0-21.24-12.26-21.24-24.61,0-14.27,7.19-25.64,21.78-25.64,15.48,0,20.55,12.42,20.55,22.65,0,1.46,0,2.68-.13,3.98h-33.82Zm25.54-5.84c-.09-7.89-4.07-14.24-12.27-14.24s-12.15,5.87-12.99,14.24h25.26Z" style="fill: #fff; stroke-width: 0px;"/>
        <path d="m1430.46,348.52l-7.08,19.75h-8.69l23.45-65.84h10.75l24.46,65.84h-9.3l-7.3-19.75h-26.27Zm24.03-7.48c-6.27-17.3-9.73-26.5-11.15-31.52h-.09c-1.61,5.59-5.47,16.72-10.52,31.52h21.77Z" style="fill: #fff; stroke-width: 0px;"/>
        <path d="m1482.34,298.79h8.28v28.33c2.17-4.09,6.57-7.98,15.31-7.98,12.04,0,19.63,9.92,19.63,24.15s-7.31,26.1-20.9,26.1c-7.68,0-11.69-2.82-14.11-7.47,0,2.46-.16,5.04-.32,6.34h-7.99c.09-5.36.09-10.75.09-16.11v-53.36Zm34.69,44.67c0-10.35-4.73-17.29-13.05-17.29-10.19,0-13.78,6.84-13.78,18.26,0,9.99,3.19,17.97,13.38,17.97,8.49,0,13.45-7.24,13.45-18.95Z" style="fill: #fff; stroke-width: 0px;"/>
        <path d="m1536.37,333.32c0-6.71-.06-10.48-.09-13.04h8.12c.13,1.35.26,5.11.26,9.8,2.51-6.49,8.23-10.69,16.16-10.93v8.26c-9.84.29-16.16,5.43-16.16,17.56v23.3h-8.28v-34.95Z" style="fill: #fff; stroke-width: 0px;"/>
        <path d="m1603.82,357.8c0,4.36.38,9.08.66,10.46h-7.93c-.38-1.07-.66-3.35-.78-6.28-1.68,3.2-5.51,7.42-14.82,7.42-11.31,0-16.14-7.37-16.14-14.66,0-10.71,8.41-15.61,22.67-15.61h8.19v-4.09c0-4.23-1.35-9.4-10.33-9.4-8.02,0-9.37,3.98-10.24,7.72h-8.02c.63-6.61,4.72-14.25,18.52-14.22,11.73.03,18.22,4.81,18.22,15.72v22.93Zm-8.09-12.93h-7.77c-9.56,0-14.69,2.64-14.69,9.41,0,4.99,3.42,8.62,9.34,8.62,11.56,0,13.11-7.78,13.11-16.5v-1.54Z" style="fill: #fff; stroke-width: 0px;"/>
        <path d="m1621.49,354.54c1.37,5.25,5.26,8.33,11.76,8.33,7.05,0,9.82-3.04,9.82-7.4s-2.2-6.57-11.36-8.79c-13.72-3.34-16.58-7.53-16.58-14.04s4.99-13.49,17.32-13.49,17.45,7.17,18.07,13.85h-8.02c-.68-3.1-3.04-7.42-10.41-7.42-6.73,0-8.72,3.23-8.72,6.38,0,3.58,1.97,5.36,10.77,7.46,14.55,3.45,17.46,8.31,17.46,15.44,0,8.41-6.67,14.55-18.61,14.55s-18.52-6.28-19.74-14.86h8.24Z" style="fill: #fff; stroke-width: 0px;"/>
        <path d="m1662.23,298.79h8.28v10.35h-8.28v-10.35Zm0,21.49h8.28v47.99h-8.28v-47.99Z" style="fill: #fff; stroke-width: 0px;"/>
        <path d="m1687.97,320.28c6.46,19.63,11.19,34.29,12.65,40.28h.09c1.17-5.34,6.27-19.71,13.47-40.28h8.43l-17.65,47.99h-9.13l-16.74-47.99h8.87Z" style="fill: #fff; stroke-width: 0px;"/>
        <path d="m1771.7,344.18c0,13.82-7.92,25.22-22.59,25.22-13.75,0-22.06-10.64-22.06-25.06s8.15-25.19,22.61-25.19c13.32,0,22.05,9.98,22.05,25.03Zm-36.12.09c0,10.52,5.25,18.2,13.87,18.2s13.71-7.28,13.71-18.17-4.91-18.23-13.9-18.23-13.68,7.25-13.68,18.2Z" style="fill: #fff; stroke-width: 0px;"/>
        <path d="m1787.29,354.54c1.37,5.25,5.26,8.33,11.76,8.33,7.05,0,9.82-3.04,9.82-7.4s-2.2-6.57-11.36-8.79c-13.72-3.34-16.58-7.53-16.58-14.04s4.99-13.49,17.32-13.49,17.45,7.17,18.07,13.85h-8.02c-.68-3.1-3.04-7.42-10.41-7.42-6.73,0-8.72,3.23-8.72,6.38,0,3.58,1.97,5.36,10.77,7.46,14.55,3.45,17.46,8.31,17.46,15.44,0,8.41-6.67,14.55-18.61,14.55s-18.52-6.28-19.74-14.86h8.24Z" style="fill: #fff; stroke-width: 0px;"/>
      </g>
    </g>
    <rect x="707.39" y="69.57" width="7.37" height="297.91" style="fill: #fff; stroke-width: 0px;"/>
  </g>
  <g id="LOGO_cópia_cópia" data-name="LOGO cópia cópia">
    <g>
      <g>
        <polygon points="313.84 224.57 173.87 313.61 33.88 224.57 37.48 222.28 173.87 309.03 310.25 222.29 313.84 224.57" style="fill: #fff; stroke-width: 0px;"/>
        <polygon points="471.17 124.5 331.19 213.54 191.21 124.5 194.81 122.21 331.19 208.97 467.57 122.21 471.17 124.5" style="fill: #fff; stroke-width: 0px;"/>
        <polygon points="471.17 324.64 331.19 413.67 191.21 324.64 194.8 322.35 331.19 409.1 467.58 322.35 471.17 324.64" style="fill: #fff; stroke-width: 0px;"/>
        <polygon points="628.49 224.57 488.51 313.61 348.53 224.57 352.12 222.29 488.51 309.03 624.9 222.29 628.49 224.57" style="fill: #fff; stroke-width: 0px;"/>
      </g>
      <g>
        <polygon points="311.53 218.53 307.94 220.81 173.87 306.09 39.79 220.81 36.2 218.53 173.87 130.96 311.53 218.53" style="fill: #fff; stroke-width: 0px;"/>
        <polygon points="468.86 118.45 465.26 120.74 331.19 206.02 197.12 120.74 193.52 118.45 331.19 30.89 468.86 118.45" style="fill: #fff; stroke-width: 0px;"/>
        <polygon points="468.86 318.59 465.26 320.88 331.19 406.16 197.11 320.88 193.52 318.59 331.19 231.03 468.86 318.59" style="fill: #fff; stroke-width: 0px;"/>
        <polygon points="626.18 218.53 622.58 220.81 488.51 306.09 354.43 220.81 350.84 218.53 488.51 130.96 626.18 218.53" style="fill: #fff; stroke-width: 0px;"/>
      </g>
    </g>
  </g>
</svg>